<svg xmlns="http://www.w3.org/2000/svg" viewBox="0 0 229.1 109.96"><defs><style>.cls-1,.cls-2{fill:#67b4f9;}.cls-2{fill-rule:evenodd;}</style></defs><title>Asset 10</title><g id="Layer_2" data-name="Layer 2"><g id="Layer_2-2" data-name="Layer 2"><path class="cls-1" d="M61.25,13A114,114,0,0,1,110,0V31.74a82.52,82.52,0,0,0-32.83,8.79L61.25,13ZM17.64,53.29A115.08,115.08,0,0,1,53.29,17.64L69.17,45.13a83.43,83.43,0,0,0-24,24L17.64,53.29ZM0,110A114,114,0,0,1,13,61.25l27.5,15.87A82.52,82.52,0,0,0,31.74,110ZM216.07,61.25a114,114,0,0,1,13,48.71H197.36a82.51,82.51,0,0,0-8.78-32.84l27.49-15.87ZM175.82,17.64a115.3,115.3,0,0,1,35.65,35.65L184,69.17a83.36,83.36,0,0,0-24-24l15.88-27.5ZM119.15,0a114,114,0,0,1,48.71,13L152,40.53a82.52,82.52,0,0,0-32.83-8.79V0Z"/><path class="cls-2" d="M114.55,106.48h0a3.53,3.53,0,0,0,4.7-2l15.88-48.37-22.55,45.64a3.53,3.53,0,0,0,2,4.7Z"/></g></g></svg>