<svg xmlns="http://www.w3.org/2000/svg" viewBox="0 0 107.84 132.24"><defs><style>.cls-1{fill:#67b4f9;}.cls-2{fill:#fff;}</style></defs><title>Asset 11</title><g id="Layer_2" data-name="Layer 2"><g id="Layer_2-2" data-name="Layer 2"><path class="cls-1" d="M.05,128.8A2.91,2.91,0,0,0,4.11,132l16.74-7.49A32.32,32.32,0,0,0,33,115L59.21,81.56l3.6-4.6,5.57-7.1L98.86,31a8.75,8.75,0,0,1,1.27,12.12l-20.38,26a2.92,2.92,0,0,0,4.6,3.61l20.38-26a14.58,14.58,0,0,0-2.55-20.54L99.66,24.2,105,17.34A8.77,8.77,0,0,0,103.6,5.09l-4-3.19A8.74,8.74,0,0,0,87.22,3.4l-5.34,6.9-.48-.38a2.92,2.92,0,0,0-4.1.49L9.65,96.7a32.26,32.26,0,0,0-6.32,14Z"/><path class="cls-2" d="M100.45,13.74l-5.4,6.88L86.47,13.9,91.83,7a2.91,2.91,0,0,1,2-1.11A2.87,2.87,0,0,1,96,6.47l4,3.19A2.93,2.93,0,0,1,100.45,13.74Z"/><rect class="cls-1" x="51.75" y="30.11" width="43.8" height="17.98" transform="translate(-2.56 72.94) rotate(-51.9)"/><rect class="cls-2" x="49.46" y="55.38" width="8.76" height="17.98" transform="translate(-30.04 67.02) rotate(-51.9)"/><path class="cls-1" d="M28.39,111.39c-.26.34-.54.67-.82,1l-14.09-11c.25-.36.5-.7.77-1L40.46,66.86,54.61,78Z"/><path class="cls-2" d="M6.78,124.39l2.3-12.59a26.22,26.22,0,0,1,1.55-5.28l12.59,9.87a26.28,26.28,0,0,1-4.76,2.77Z"/></g></g></svg>