<svg width="18" height="18" viewBox="0 0 18 18" fill="none" xmlns="http://www.w3.org/2000/svg">
<g id="icon/editor/format_paint_24px">
<path id="icon/editor/format_paint_24px_2" fill-rule="evenodd" clip-rule="evenodd" d="M13.125 2.25V3H15.375V9H9.375V15.75C9.375 16.1625 9.0375 16.5 8.625 16.5H7.125C6.7125 16.5 6.375 16.1625 6.375 15.75V7.5H13.875V4.5H13.125V5.25C13.125 5.6625 12.7875 6 12.375 6H3.375C2.9625 6 2.625 5.6625 2.625 5.25V2.25C2.625 1.8375 2.9625 1.5 3.375 1.5H12.375C12.7875 1.5 13.125 1.8375 13.125 2.25ZM4.125 4.5H11.625V3H4.125V4.5Z" fill="#447ADD"/>
</g>
</svg>
