<svg width="30" height="28" viewBox="0 0 30 28" fill="none" xmlns="http://www.w3.org/2000/svg">
<g id="icon/content/how_to_reg_24px">
<path id="icon/content/how_to_reg_24px_2" fill-rule="evenodd" clip-rule="evenodd" d="M18.125 9.04167C18.125 11.62 15.8875 13.7083 13.125 13.7083C10.3625 13.7083 8.125 11.62 8.125 9.04167C8.125 6.46333 10.3625 4.375 13.125 4.375C15.8875 4.375 18.125 6.46333 18.125 9.04167ZM15.625 9.04167C15.625 7.75833 14.5 6.70833 13.125 6.70833C11.75 6.70833 10.625 7.75833 10.625 9.04167C10.625 10.325 11.75 11.375 13.125 11.375C14.5 11.375 15.625 10.325 15.625 9.04167ZM5.625 20.7083C5.875 19.9733 8.8375 18.7483 11.825 18.445L14.375 16.1117C13.8875 16.065 13.525 16.0417 13.125 16.0417C9.7875 16.0417 3.125 17.605 3.125 20.7083V23.0417H14.375L11.875 20.7083H5.625ZM18.7125 20.3233L25.125 14.2917L26.875 15.9367L18.7125 23.625L14.375 19.5417L16.125 17.8967L18.7125 20.3233Z" fill="#848484"/>
</g>
</svg>
