<svg xmlns="http://www.w3.org/2000/svg" viewBox="0 0 264.21 145.18"><defs><style>.cls-1{fill:#d0f1ff;}.cls-1,.cls-2,.cls-3,.cls-4,.cls-5,.cls-6,.cls-7{stroke:#000;}.cls-1,.cls-2,.cls-3,.cls-4,.cls-7{stroke-width:2px;}.cls-2,.cls-5{fill:#333;}.cls-3{fill:#67b4f9;}.cls-3,.cls-4,.cls-7{stroke-miterlimit:10;}.cls-4{fill:#0d2844;}.cls-5,.cls-6{stroke-width:1.5px;}.cls-6{fill:#f9f4e7;}.cls-7{fill:#fcd9f5;}</style></defs><title>Asset 10</title><g id="Layer_2" data-name="Layer 2"><g id="Layer_1-2" data-name="Layer 1"><rect class="cls-1" x="74.32" y="-0.21" width="115.87" height="171.1" transform="translate(45.54 216.7) rotate(-89.4)"/><rect class="cls-2" x="12.72" y="80.38" width="13" height="36.27" transform="translate(-79.5 116.7) rotate(-89.4)"/><rect class="cls-3" x="-2.17" y="90.36" width="35.74" height="16.25" transform="translate(-82.94 113.15) rotate(-89.4)"/><rect class="cls-3" x="60.2" y="1.19" width="16.43" height="16.24" transform="translate(58.4 77.63) rotate(-89.41)"/><rect class="cls-3" x="191.03" y="2.55" width="16.43" height="16.24" transform="translate(186.47 209.8) rotate(-89.4)"/><rect class="cls-2" x="238.5" y="82.74" width="13" height="36.28" transform="translate(141.54 344.79) rotate(-89.39)"/><rect class="cls-3" x="230.65" y="92.79" width="35.74" height="16.25" transform="translate(145.07 348.38) rotate(-89.41)"/><path class="cls-4" d="M139.93,128.91l-16.73-.17c-3.68,0-6.64-2.54-6.61-5.59l.08-8.06,30.49.31-.08,7.72C147.05,126.36,143.85,129,139.93,128.91Z"/><rect class="cls-5" x="71.64" y="70.2" width="38.69" height="25.11" transform="translate(7.28 172.86) rotate(-89.4)"/><path class="cls-6" d="M75.43,104.7l.46-44.22,30.64.32L106.07,105l-30.64-.32Zm5.94-38.63L81,99.23l19.58.2.34-33.16-19.57-.2Z"/><rect class="cls-5" x="155.21" y="71.07" width="38.69" height="25.1" transform="matrix(0.01, -1, 1, 0.01, 89.14, 257.31)"/><path class="cls-6" d="M159,105.57l.45-44.21,30.63.32-.46,44.21L159,105.57Zm5.92-38.63-.34,33.16,19.57.21.35-33.16-19.58-.21Z"/><rect class="cls-7" x="82.91" y="100.01" width="13.58" height="25.23" transform="translate(-23.86 201.14) rotate(-89.4)"/><rect class="cls-7" x="167.85" y="100.96" width="13.58" height="25.23" transform="translate(59.24 287.02) rotate(-89.4)"/></g></g></svg>